<svg width="33" height="44" viewBox="0 0 33 44" fill="none" xmlns="http://www.w3.org/2000/svg">
<path fill-rule="evenodd" clip-rule="evenodd" d="M4.55664 12.998C4.55664 6.372 9.92964 1 16.5566 1C23.1856 1 28.5566 6.372 28.5566 12.998C28.5566 19.625 23.1856 24.996 16.5566 24.996C9.92964 24.996 4.55664 19.625 4.55664 12.998ZM20.4176 16.704C22.5216 17.2 24.3366 17.548 24.6466 17.441C25.2386 16.896 25.2406 8.6 24.6466 7.753C23.8816 7.1 13.8766 4.57 13.1146 4.837C12.8396 5.089 12.6926 6.999 12.6716 9.063C10.5666 8.566 8.75164 8.218 8.44264 8.325C7.84964 8.871 7.84964 17.169 8.44164 18.012C9.20564 18.666 19.2116 21.197 19.9756 20.929C20.2496 20.677 20.3966 18.767 20.4176 16.704ZM20.4176 16.704C20.4416 14.304 20.2946 11.696 19.9756 11.242C19.5196 10.852 15.7806 9.796 12.6716 9.063C12.6486 11.462 12.7946 14.07 13.1136 14.524C13.5666 14.914 17.3086 15.97 20.4176 16.704ZM13.334 38.8095C13.334 39.5093 13.2103 40.123 12.9629 40.6503C12.7155 41.1776 12.3607 41.5845 11.8984 41.871C11.4395 42.1575 10.9121 42.3007 10.3164 42.3007C9.72721 42.3007 9.2015 42.1591 8.73926 41.8759C8.27702 41.5927 7.91895 41.189 7.66504 40.6649C7.41113 40.1376 7.28255 39.5321 7.2793 38.8485V38.497C7.2793 37.7971 7.40462 37.1819 7.65527 36.6513C7.90918 36.1174 8.26562 35.7089 8.72461 35.4257C9.18685 35.1392 9.71419 34.996 10.3066 34.996C10.8991 34.996 11.4248 35.1392 11.8838 35.4257C12.346 35.7089 12.7025 36.1174 12.9531 36.6513C13.207 37.1819 13.334 37.7955 13.334 38.4921V38.8095ZM11.8496 38.4872C11.8496 37.7418 11.7161 37.1754 11.4492 36.788C11.1823 36.4006 10.8014 36.2069 10.3066 36.2069C9.8151 36.2069 9.43587 36.399 9.16895 36.7831C8.90202 37.164 8.76693 37.7239 8.76367 38.4628V38.8095C8.76367 39.5354 8.89714 40.0985 9.16406 40.4989C9.43099 40.8993 9.8151 41.0995 10.3164 41.0995C10.8079 41.0995 11.1855 40.9075 11.4492 40.5233C11.7129 40.136 11.8464 39.5728 11.8496 38.8339V38.4872ZM6.79102 36.2802H4.61328V42.203H3.14844V36.2802H1V35.0937H6.79102V36.2802ZM17.1523 36.2802H19.3301V35.0937H13.5391V36.2802H15.6875V42.203H17.1523V36.2802ZM22.875 40.4403L24.4863 35.0937H26.1172L23.6416 42.203H22.1133L19.6475 35.0937H21.2734L22.875 40.4403ZM30.1846 39.703C30.3799 39.8495 30.4775 40.0611 30.4775 40.3378C30.4775 40.5917 30.3799 40.7903 30.1846 40.9335C29.9893 41.0735 29.7174 41.1435 29.3691 41.1435C28.4316 41.1435 27.9629 40.7512 27.9629 39.9667H26.4932C26.4932 40.4257 26.6104 40.8293 26.8447 41.1776C27.0824 41.526 27.4258 41.801 27.875 42.0028C28.3242 42.2014 28.8223 42.3007 29.3691 42.3007C30.1569 42.3007 30.7835 42.1265 31.249 41.7782C31.7145 41.4267 31.9473 40.9433 31.9473 40.328C31.9473 39.7746 31.7568 39.3124 31.376 38.9413C30.9951 38.5702 30.388 38.2593 29.5547 38.0087C29.1022 37.872 28.7588 37.7255 28.5244 37.5692C28.2933 37.413 28.1777 37.2193 28.1777 36.9882C28.1777 36.7408 28.277 36.5422 28.4756 36.3925C28.6742 36.2395 28.9525 36.163 29.3105 36.163C29.6816 36.163 29.9697 36.2541 30.1748 36.4364C30.3799 36.6155 30.4824 36.8677 30.4824 37.1933H31.9473C31.9473 36.7668 31.8366 36.386 31.6152 36.0507C31.3971 35.7154 31.0895 35.4566 30.6924 35.2743C30.2952 35.0888 29.8428 34.996 29.335 34.996C28.8304 34.996 28.3747 35.0806 27.9678 35.2499C27.5641 35.4192 27.2533 35.6552 27.0352 35.9579C26.8203 36.2574 26.7129 36.5992 26.7129 36.9833C26.7129 37.7222 27.1165 38.3098 27.9238 38.746C28.2201 38.9055 28.6221 39.0683 29.1299 39.2343C29.6377 39.397 29.9893 39.5533 30.1846 39.703Z" fill="#56626E"/>
</svg>
